<svg width="204" height="52" viewBox="0 0 204 52" version="1.1" xmlns="http://www.w3.org/2000/svg" xmlns:xlink="http://www.w3.org/1999/xlink">
  <g id="files-lg" class="files-lg" fill="#717171">
    <path class="file-graph" d="M40,42 L40,12 L42,12 L42,40 L64,40 L64,42 L40,42 L40,42 Z M45,37 L45,16 L49,16 L49,37 L45,37 L45,37 Z M51,37 L51,22 L55,22 L55,37 L51,37 L51,37 Z M68.5,48 L35.5,48 C34.7,48 34,47.3 34,46.5 L34,7.5 C34,6.7 34.7,6 35.5,6 L59,6 L70,17 L70,46.5 C70,47.3 69.3,48 68.5,48 L68.5,48 Z M68,18 L58,8 L36,8 L36,46 L68,46 L68,18 L68,18 Z M57,37 L57,27 L61,27 L61,37 L57,37 L57,37 Z"></path>
    <path class="file-zip" d="M17,14 L1,14 C0.4,14 0,14.5 0,15 L0,41 C0,41.5 0.4,42 1,42 L23,42 C23.6,42 24,41.5 24,41 L24,21 L17,14 Z M22,40 L2,40 L2,16 L8,16 L8,18 L10,18 L10,16 L16,16 L22,22 L22,40 Z M8,30.5 C6.8,31.2 6,32.5 6,34 L6,36 L14,36 L14,34 C14,31.8 12.2,30 10,30 L10,28 L8,28 L8,30.5 Z M12,32 L12,34 L8,34 L8,32 L12,32 Z M10,20 L10,18 L12,18 L12,20 L10,20 Z M8,20 L10,20 L10,22 L8,22 L8,20 Z M10,24 L10,22 L12,22 L12,24 L10,24 Z M8,24 L10,24 L10,26 L8,26 L8,24 Z M10,28 L10,26 L12,26 L12,28 L10,28 Z"></path>
    <path class="file-generic" d="M168.5,48 L135.5,48 C134.7,48 134,47.3 134,46.5 L134,7.5 C134,6.7 134.7,6 135.5,6 L159,6 L170,17 L170,46.5 C170,47.3 169.3,48 168.5,48 Z M168,18 L158,8 L136,8 L136,46 L168,46 L168,18 Z M140,35 L140,33 L161,33 L161,35 L140,35 Z M140,30 L140,28 L161,28 L161,30 L140,30 Z M140,25 L140,23 L161,23 L161,25 L140,25 Z M140,17 L140,15 L152,15 L152,17 L140,17 Z M140,40 L140,38 L161,38 L161,40 L140,40 Z"></path>
    <path class="file-acrobat" d="M181,14 C180.5,14 180,14.5 180,15 L180,41 C180,41.5 180.5,42 181,42 L203,42 C203.5,42 204,41.5 204,41 L204,23 L204,21 L197,14 L181,14 Z M200.8,29.9 C200.3,29.8 199.8,29.7 199.3,29.7 C198.5,29.7 197.7,29.8 196.8,29.9 C196.3,29.8 195.7,29.3 194.8,28.6 C193.9,27.9 193.1,26.3 192.2,23.9 C192.5,22.2 192.6,20.9 192.7,19.9 C192.8,18.9 192.8,18.4 192.7,18.4 C192.8,17.6 192.6,17 192.3,16.6 C192,16.2 191.4,16 191,16 L196,16 L202,22 L202,30.4 C201.6,30.2 201.2,30 200.8,29.9 Z M182,16 L190,16 C189.8,16.1 189.6,16.2 189.4,16.4 C189.2,16.6 189,16.9 188.9,17.4 C188.7,18.2 188.6,19.2 188.7,20.3 C188.8,21.5 189.1,22.7 189.4,23.9 C188.9,25.4 188.2,27.2 187.2,29.3 C186.2,31.4 185.6,32.6 185.4,33 C185.1,33.1 184.7,33.3 184,33.6 C183.3,33.9 182.7,34.4 182,35 L182,16 L182,16 Z M195.1,31 C193.8,31.2 192.6,31.4 191.5,31.7 C190.3,32 189.1,32.4 187.8,32.9 L189,30.4 C189.8,28.7 190.4,27.2 190.8,25.8 L190.8,25.9 C191.7,28.2 192.5,29.6 193.1,30.1 C193.8,30.5 194.5,30.8 195.1,31 L195.1,31 Z M184.1,39.2 C185,38.4 186.2,36.9 187.7,34.4 C188.3,34.1 188.9,33.9 189.3,33.7 L190.1,33.4 C191.1,33.1 192,32.9 193,32.7 C194,32.5 195,32.4 196,32.3 C196.9,32.7 197.9,33.1 198.8,33.3 C199.8,33.6 200.6,33.7 201.3,33.8 C201.5,33.8 201.8,34 202,34 L202,40 L182,40 C182.4,39.9 183.6,39.6 184.1,39.2 Z"></path>
    <path class="file-code" d="M111,0 L82,0 C80.9,0 80,0.9 80,2 L80,50 C80,51.1 80.9,52 82,52 L122,52 C123.1,52 124,51.1 124,50 L124,13 L111,0 Z M122,50 L82,50 L82,2 L110,2 L122,14 L122,50 Z M107,18 L116,28 L107,38 L104,35 L111,28 L104,21 L107,18 Z M100,21 L93,28 L100,35 L97,38 L88,28 L97,18 L100,21 Z"></path>
  </g>
</svg>
